<svg width="24" height="24" viewBox="0 0 24 24" fill="none" xmlns="http://www.w3.org/2000/svg">
<path d="M19.79 17.4995H21.9999V21.9992H16.0003L19.79 17.4995Z" fill="#5F7A6A"/>
<path d="M13.2899 17.4995H14.9998V21.9992H9.00021L13.2899 17.4995Z" fill="#5F7A6A"/>
<path d="M6.78952 17.4995H7.99949V21.9992H1.99991L6.78952 17.4995Z" fill="#5F7A6A"/>
<path d="M19.4264 9.75525H21.9411V16.1453H15.906L19.4264 9.75525Z" fill="#5F7A6A"/>
<path d="M12.9774 9.75525H15.1961V16.1453H9.16107L12.9774 9.75525Z" fill="#5F7A6A"/>
<path d="M6.02511 9.75525H8.09596V16.1453H2.06091L6.02511 9.75525Z" fill="#5F7A6A"/>
<path d="M18.9491 2.00073H21.9411V8.39078H15.906L18.9491 2.00073Z" fill="#5F7A6A"/>
<path d="M11.9298 2.00073H15.1961V8.39078H9.16107L11.9298 2.00073Z" fill="#5F7A6A"/>
<path d="M4.72432 2.00073H8.09596V8.39078H2.06091L4.72432 2.00073Z" fill="#5F7A6A"/>
</svg>
