<svg xmlns="http://www.w3.org/2000/svg" width="24" height="24" viewBox="0 0 24 24"><path fill="currentColor" d="M16.5 3.5C14.8 2.5 12.8 2 10.8 2.2 7.2 2.6 4.2 5.2 3.4 8.7c-.4 1.8-.2 3.6.4 5.3h0c.1.2.3.3.5.2.2-.1.3-.3.2-.5C3.9 12.1 3.8 10.4 4.1 8.9 4.8 5.8 7.5 3.4 10.7 3c1.8-.2 3.5.2 5 1.1 1.5.9 2.6 2.2 3.2 3.8.1.2.3.3.5.2.2-.1.3-.3.2-.5-.7-1.8-1.9-3.2-3.6-4.1zM20.2 10c-.2.1-.3.3-.2.5.5 1.6.5 3.3 0 4.9-.7 2.2-2.3 3.9-4.4 4.8-2.1.9-4.4.9-6.5.2-1-.3-1.8-.8-2.6-1.5-.2-.2-.4-.1-.5.1-.2.2-.1.4.1.5.8.7 1.8 1.3 2.8 1.6 1.2.4 2.5.6 3.7.6 1 0 2-.2 3-.5 2.3-1 4.1-2.8 4.8-5.2.6-1.7.6-3.6 0-5.3 0-.1-.1-.2-.2-.2-.2-.1-.3 0-.4.1zM12 8c-2.2 0-4 1.8-4 4s1.8 4 4 4 4-1.8 4-4-1.8-4-4-4zm0 6.5c-1.4 0-2.5-1.1-2.5-2.5s1.1-2.5 2.5-2.5 2.5 1.1 2.5 2.5-1.1 2.5-2.5 2.5z"/></svg>