<svg width="170" height="24" viewBox="0 0 170 24" fill="none" xmlns="http://www.w3.org/2000/svg">
  <g fill="#15201A">
    <path d="M19.79 17.4995H21.9999V21.9992H16.0003L19.79 17.4995Z"/>
    <path d="M13.2899 17.4995H14.9998V21.9992H9.00021L13.2899 17.4995Z"/>
    <path d="M6.78952 17.4995H7.99949V21.9992H1.99991L6.78952 17.4995Z"/>
    <path d="M19.4264 9.75533H21.9411V16.1454H15.906L19.4264 9.75533Z"/>
    <path d="M12.9774 9.75533H15.1961V16.1454H9.16107L12.9774 9.75533Z"/>
    <path d="M6.02511 9.75533H8.09596V16.1454H2.06091L6.02511 9.75533Z"/>
    <path d="M18.9491 2.00076H21.9411V8.39081H15.906L18.9491 2.00076Z"/>
    <path d="M11.9298 2.00076H15.1961V8.39081H9.16107L11.9298 2.00076Z"/>
    <path d="M4.72432 2.00076H8.09596V8.39081H2.06091L4.72432 2.00076Z"/>
  </g>
  <text x="32" y="17.3" fill="#15201A" font-family="Inter, -apple-system, BlinkMacSystemFont, 'Segoe UI', Helvetica, Arial, sans-serif" font-size="17" font-weight="600" letter-spacing="-0.02em">actioneer</text>
</svg>
