<svg xmlns="http://www.w3.org/2000/svg" viewBox="0 0 64 64" width="100%" height="100%">
  <!-- Base platform structure -->
  <path fill="#527FFF" d="M12 51.5h40v4H12z"/>
  <path fill="#0046E2" d="M12 51.5h40v1.5H12z"/>
  <path fill="#85A3FF" d="M16 43.5h32v4H16z"/>
  <path fill="#2E63E9" d="M16 43.5h32v1.5H16z"/>

  <!-- Central query/magnifying glass element -->
  <path fill="#FF4F4F" d="M41.1 23.2l-4.2-4.2c1.4-2 2.2-4.4 2.2-7 0-6.6-5.4-12-12-12s-12 5.4-12 12 5.4 12 12 12c2.6 0 5-.8 7-2.2l4.2 4.2c.6.6 1.5.6 2.1 0l2.7-2.7c.6-.6.6-1.5 0-2.1zM27.1 20c-4.4 0-8-3.6-8-8s3.6-8 8-8 8 3.6 8 8-3.6 8-8 8z"/>
  <path fill="#D20000" d="M38.3 26l2.8-2.8c.6-.6.6-1.5 0-2.1l-4.2-4.2c.6-.9 1.1-1.9 1.4-3h1.8c.5 0 .9.4.9.9v1.4c0 .8.3 1.5.9 2.1l3.5 3.5c.6.6.6 1.5 0 2.1l-5 5c-.6.6-1.5.6-2.1 0z"/>
</svg>
